<?xml version="1.0" encoding="iso-8859-1"?>
<!-- Generator: Adobe Illustrator 19.0.0, SVG Export Plug-In . SVG Version: 6.00 Build 0)  -->
<svg version="1.1" id="Capa_1" xmlns="http://www.w3.org/2000/svg" xmlns:xlink="http://www.w3.org/1999/xlink" x="0px" y="0px"
	 viewBox="0 0 384 384" style="enable-background:new 0 0 384 384;" xml:space="preserve">
<g>
	<g>
		<rect x="176" y="207.978" width="32" height="32"/>
	</g>
</g>
<g>
	<g>
		<rect x="176" y="271.978" width="32" height="32"/>
	</g>
</g>
<g>
	<g>
		<rect x="240" y="271.978" width="32" height="32"/>
	</g>
</g>
<g>
	<g>
		<rect x="112" y="207.978" width="32" height="32"/>
	</g>
</g>
<g>
	<g>
		<path d="M336,64h-32V16c0-8.837-7.163-16-16-16s-16,7.163-16,16v96c-17.673,0-32-14.327-32-32V64H128V16c0-8.837-7.163-16-16-16
			S96,7.163,96,16v96c-17.673,0-32-14.327-32-32V64H48c-17.6,0-32,14.399-32,32v256c0,17.6,14.4,32,32,32h288
			c17.673,0,32-14.327,32-32V160v-16V96C368,78.326,353.673,64,336,64z M336,352c-69.895,0-216.914,0-288,0V160h288V352z"/>
	</g>
</g>
<g>
</g>
<g>
</g>
<g>
</g>
<g>
</g>
<g>
</g>
<g>
</g>
<g>
</g>
<g>
</g>
<g>
</g>
<g>
</g>
<g>
</g>
<g>
</g>
<g>
</g>
<g>
</g>
<g>
</g>
</svg>
