<?xml version="1.0" encoding="iso-8859-1"?>
<!-- Generator: Adobe Illustrator 18.1.1, SVG Export Plug-In . SVG Version: 6.00 Build 0)  -->
<svg version="1.1" id="Capa_1" xmlns="http://www.w3.org/2000/svg" xmlns:xlink="http://www.w3.org/1999/xlink" x="0px" y="0px"
	 viewBox="0 0 612 612" style="enable-background:new 0 0 612 612;" xml:space="preserve">
<g>
	<path d="M431.214,344.712V456.09c0,23.621-19.218,42.836-42.839,42.836h-1.152c-23.621,0-42.836-19.215-42.836-42.836V344.712
		c0-23.621,19.215-42.839,42.836-42.839h1.152C411.997,301.873,431.214,321.09,431.214,344.712z M550.703,142.597v77.585v306.501
		c0,47.043-38.271,85.317-85.314,85.317H146.614c-47.043,0-85.317-38.273-85.317-85.317V220.183v-77.585
		c0-47.043,38.273-85.317,85.317-85.317h21.479V14.223C168.093,6.366,174.459,0,182.316,0c7.857,0,14.223,6.366,14.223,14.223
		v43.058h218.925V14.223C415.464,6.366,421.83,0,429.687,0s14.223,6.366,14.223,14.223v43.058h21.479
		C512.432,57.281,550.703,95.554,550.703,142.597z M278.943,342.57c0-38.123-31.017-69.143-69.143-69.143h-43.234
		c-7.857,0-14.223,6.366-14.223,14.223s6.366,14.223,14.223,14.223H209.8c22.441,0,40.697,18.256,40.697,40.697v1.112
		c0,22.441-18.256,40.697-40.697,40.697h-43.234c-7.857,0-14.223,6.366-14.223,14.223c0,7.857,6.366,14.223,14.223,14.223H209.8
		c22.441,0,40.697,18.256,40.697,40.697v1.109c0,22.441-18.256,40.697-40.697,40.697h-43.234c-7.857,0-14.223,6.366-14.223,14.223
		s6.366,14.223,14.223,14.223H209.8c38.123,0,69.143-31.017,69.143-69.143v-1.109c0-22.364-10.681-42.273-27.202-54.92
		c16.521-12.647,27.202-32.556,27.202-54.92V342.57z M459.66,344.712c0-39.306-31.976-71.285-71.285-71.285h-1.152
		c-39.303,0-71.282,31.976-71.282,71.285V456.09c0,39.303,31.976,71.282,71.282,71.282h1.152c39.306,0,71.285-31.976,71.285-71.282
		V344.712z M522.257,142.597c0-31.358-25.513-56.871-56.868-56.871H443.91v43.542c0,7.857-6.366,14.223-14.223,14.223
		s-14.223-6.366-14.223-14.223V85.726H196.539v43.542c0,7.857-6.366,14.223-14.223,14.223s-14.223-6.366-14.223-14.223V85.726
		h-21.479c-31.358,0-56.871,25.513-56.871,56.871v63.362h432.514V142.597z"/>
</g>
<g>
</g>
<g>
</g>
<g>
</g>
<g>
</g>
<g>
</g>
<g>
</g>
<g>
</g>
<g>
</g>
<g>
</g>
<g>
</g>
<g>
</g>
<g>
</g>
<g>
</g>
<g>
</g>
<g>
</g>
</svg>
